<?xml version="1.0" encoding="UTF-8"?>
<svg width="72px" height="72px" viewBox="0 0 72 72" version="1.1" xmlns="http://www.w3.org/2000/svg" xmlns:xlink="http://www.w3.org/1999/xlink">
    <!-- Generator: Sketch 46.2 (44496) - http://www.bohemiancoding.com/sketch -->
    <title>icon_fill</title>
    <desc>Created with Sketch.</desc>
    <defs></defs>
    <g id="Icons" stroke="none" stroke-width="1" fill="none" fill-rule="evenodd">
        <g id="icon_fill">
            <path d="M36,0 C16.149,0 0,16.149 0,36 C0,55.851 16.149,72 36,72 C55.851,72 72,55.851 72,36 C72,16.149 55.851,0 36,0 Z" id="Combined-Shape" fill="#303030" fill-rule="nonzero" opacity="0.9"></path>
            <g id="Group" transform="translate(21.000000, 21.000000)" fill="#FFFFFF">
                <path d="M1.36363636,0 L13.6363636,0 L13.6363636,2.72727273 L4.65545455,2.72727273 L13.2368182,11.3086364 L11.3086364,13.2368182 L2.72727273,4.65545455 L2.72727273,13.6363636 L0,13.6363636 L0,1.36363636 C0,0.609545455 0.610909091,0 1.36363636,0 Z" id="Shape"></path>
                <path d="M16.7631818,18.6913636 L18.6913636,16.7631818 L27.2727273,25.3445455 L27.2727273,16.3636364 L30,16.3636364 L30,28.6363636 C30,29.3904545 29.3890909,30 28.6363636,30 L16.3636364,30 L16.3636364,27.2727273 L25.3445455,27.2727273 L16.7631818,18.6913636 Z" id="Shape"></path>
            </g>
        </g>
    </g>
</svg>