<?xml version="1.0" encoding="UTF-8"?>
<svg width="32px" height="32px" viewBox="0 0 32 32" version="1.1" xmlns="http://www.w3.org/2000/svg" xmlns:xlink="http://www.w3.org/1999/xlink">
    <!-- Generator: Sketch 46.2 (44496) - http://www.bohemiancoding.com/sketch -->
    <title>icon_close</title>
    <desc>Created with Sketch.</desc>
    <defs>
        <path d="M18.1213203,16 L25.8994949,8.22182541 C26.4852814,7.63603897 26.4852814,6.6862915 25.8994949,6.10050506 C25.3137085,5.51471863 24.363961,5.51471863 23.7781746,6.10050506 L16,13.8786797 L8.22182541,6.10050506 C7.63603897,5.51471863 6.6862915,5.51471863 6.10050506,6.10050506 C5.51471863,6.6862915 5.51471863,7.63603897 6.10050506,8.22182541 L13.8786797,16 L6.10050506,23.7781746 C5.51471863,24.363961 5.51471863,25.3137085 6.10050506,25.8994949 C6.6862915,26.4852814 7.63603897,26.4852814 8.22182541,25.8994949 L16,18.1213203 L23.7781746,25.8994949 C24.363961,26.4852814 25.3137085,26.4852814 25.8994949,25.8994949 C26.4852814,25.3137085 26.4852814,24.363961 25.8994949,23.7781746 L18.1213203,16 L18.1213203,16 Z" id="path-1"></path>
    </defs>
    <g id="Icons" stroke="none" stroke-width="1" fill="none" fill-rule="evenodd">
        <g id="icon_close">
            <g id="Combined-Shape">
                <use fill="#FFFFFF" fill-rule="evenodd" xlink:href="#path-1"></use>
                <path d="M18.1213203,16 L25.8994949,8.22182541 C26.4852814,7.63603897 26.4852814,6.6862915 25.8994949,6.10050506 C25.3137085,5.51471863 24.363961,5.51471863 23.7781746,6.10050506 L16,13.8786797 L8.22182541,6.10050506 C7.63603897,5.51471863 6.6862915,5.51471863 6.10050506,6.10050506 C5.51471863,6.6862915 5.51471863,7.63603897 6.10050506,8.22182541 L13.8786797,16 L6.10050506,23.7781746 C5.51471863,24.363961 5.51471863,25.3137085 6.10050506,25.8994949 C6.6862915,26.4852814 7.63603897,26.4852814 8.22182541,25.8994949 L16,18.1213203 L23.7781746,25.8994949 C24.363961,26.4852814 25.3137085,26.4852814 25.8994949,25.8994949 C26.4852814,25.3137085 26.4852814,24.363961 25.8994949,23.7781746 L18.1213203,16 L18.1213203,16 Z"></path>
            </g>
        </g>
    </g>
</svg>